<?xml version="1.0" standalone="no"?>
<!DOCTYPE svg PUBLIC "-//W3C//DTD SVG 20010904//EN"
 "http://www.w3.org/TR/2001/REC-SVG-20010904/DTD/svg10.dtd">
<svg version="1.0" xmlns="http://www.w3.org/2000/svg"
 width="700.000000pt" height="700.000000pt" viewBox="0 0 700.000000 700.000000"
 preserveAspectRatio="xMidYMid meet">
<metadata>
Created by potrace 1.14, written by Peter Selinger 2001-2017
</metadata>
<g transform="translate(0.000000,700.000000) scale(0.100000,-0.100000)"
fill="#000000" stroke="none">
<path d="M3205 6233 c-166 -13 -418 -57 -423 -74 -2 -5 -7 -7 -12 -4 -12 8
-150 -26 -150 -37 0 -5 -4 -6 -10 -3 -20 12 -451 -176 -495 -216 -5 -5 -242
-9 -527 -9 -435 0 -518 -2 -518 -14 0 -7 78 -139 173 -292 187 -300 177 -276
132 -328 -46 -52 -126 -167 -121 -174 3 -5 -3 -12 -14 -15 -11 -3 -20 -13 -20
-22 0 -9 -6 -23 -13 -30 -29 -33 -37 -45 -37 -55 0 -5 -4 -10 -10 -10 -5 0
-10 -9 -10 -19 0 -11 -4 -22 -10 -26 -5 -3 -6 -13 -3 -22 4 -10 2 -14 -4 -10
-5 3 -18 -13 -28 -36 -10 -23 -24 -46 -32 -50 -7 -4 -13 -16 -13 -25 0 -10 -6
-27 -14 -38 -8 -11 -17 -37 -21 -57 -4 -20 -13 -41 -21 -48 -7 -6 -16 -26 -20
-45 -3 -19 -11 -34 -16 -34 -6 0 -8 -7 -4 -15 3 -8 2 -15 -3 -15 -5 0 -12 -20
-15 -45 -4 -25 -11 -45 -15 -45 -4 0 -8 -13 -9 -30 0 -16 -4 -35 -9 -42 -4 -7
-9 -28 -10 -46 -1 -19 -9 -55 -18 -82 -13 -40 -30 -135 -36 -210 -1 -8 -5 -19
-9 -25 -3 -5 -8 -28 -9 -50 -1 -22 -6 -85 -10 -140 -8 -109 -6 -344 4 -440 12
-107 14 -119 29 -186 9 -36 17 -86 18 -112 2 -26 6 -47 9 -47 3 0 12 -26 19
-57 7 -32 15 -62 19 -68 4 -5 25 -59 46 -120 22 -60 45 -121 52 -135 7 -14 13
-32 13 -42 0 -9 5 -18 10 -20 6 -2 26 -36 45 -77 18 -41 37 -76 42 -80 7 -6
26 -37 60 -104 8 -15 19 -27 24 -27 5 0 9 -5 9 -12 0 -6 10 -25 23 -42 13 -17
26 -39 30 -48 3 -10 11 -18 17 -18 5 0 10 -7 10 -15 0 -7 6 -18 13 -22 7 -4
24 -24 37 -43 14 -19 37 -46 52 -60 15 -13 28 -28 28 -32 0 -10 101 -108 111
-108 5 0 9 -4 9 -10 0 -12 59 -70 71 -70 5 0 9 -7 9 -15 0 -8 7 -15 15 -15 8
0 19 -8 24 -19 6 -10 24 -24 40 -31 16 -6 32 -18 35 -26 3 -8 12 -14 21 -14 8
0 15 -4 15 -9 0 -10 98 -84 140 -106 17 -9 30 -19 30 -23 0 -5 15 -16 33 -25
17 -10 46 -26 62 -37 17 -11 44 -27 60 -35 17 -9 45 -25 63 -35 18 -11 38 -18
43 -15 5 4 9 1 9 -5 0 -6 10 -15 23 -20 12 -6 29 -14 37 -20 8 -5 39 -19 67
-31 46 -19 51 -23 42 -41 -5 -10 -9 -37 -7 -60 2 -31 10 -46 31 -62 27 -20 44
-21 420 -29 450 -8 1479 -9 1612 -1 115 7 143 17 153 58 17 64 -17 137 -79
168 -21 11 -27 18 -16 18 10 0 20 6 23 14 3 8 21 17 40 21 19 3 38 13 41 21 3
7 12 14 21 14 15 0 90 46 102 62 3 4 22 14 43 23 20 8 37 20 37 25 0 6 5 10
12 10 6 0 26 11 44 25 18 14 37 25 43 25 6 0 11 5 11 10 0 6 11 15 25 20 14 5
25 14 25 20 0 5 6 10 13 10 13 1 58 35 119 92 22 21 43 38 46 38 14 0 292 295
292 310 0 4 7 13 15 20 15 12 75 97 75 105 0 2 11 16 25 31 14 15 25 31 25 35
0 4 11 24 23 43 13 19 41 68 62 110 21 42 42 76 47 76 5 0 7 4 4 9 -3 5 6 30
19 57 14 27 25 54 25 61 0 7 8 27 19 46 10 18 22 49 26 68 4 19 12 45 18 59 6
14 16 48 23 75 7 28 20 75 28 105 9 30 18 69 20 85 2 17 9 41 14 55 5 14 10
28 10 33 3 39 17 133 27 182 34 153 39 515 11 710 -14 97 -41 232 -63 310 -13
50 -25 96 -26 103 0 6 -3 12 -7 12 -4 0 -12 23 -18 51 -7 27 -26 80 -43 117
-17 37 -35 76 -39 87 -35 82 -51 115 -59 120 -5 3 -12 19 -16 35 -4 17 -11 30
-16 30 -5 0 -16 17 -24 37 -9 21 -19 40 -23 43 -13 10 -52 69 -52 80 0 5 -8
18 -17 28 -10 9 -26 29 -35 43 -16 26 -16 27 188 370 112 189 204 347 204 352
0 4 -268 7 -595 7 l-596 0 -60 33 c-33 17 -70 38 -82 44 -12 7 -30 13 -39 13
-10 0 -18 4 -18 8 0 11 -138 74 -166 76 -13 0 -24 4 -24 8 0 3 -24 14 -52 23
-29 9 -62 20 -73 25 -33 15 -98 30 -106 25 -4 -3 -9 -1 -11 5 -3 9 -68 25
-140 35 -15 2 -32 6 -38 10 -5 3 -10 0 -10 -7 0 -9 -3 -9 -8 -2 -4 6 -18 14
-32 17 -33 8 -167 22 -309 33 -65 5 -85 3 -92 -7 -7 -11 -9 -11 -9 -1 0 14 -1
14 -245 -5z"/>
</g>
</svg>
